<svg xmlns="http://www.w3.org/2000/svg" viewBox="0 0 64 64" width="64" height="64">
  <rect width="64" height="64" rx="10" fill="#0B3D2E"/>
  <!-- Cormorant Garamond Italic 500, glyph "&" — extracted as path so the
       brand's stylized "et" ligature renders without depending on a webfont. -->
  <g transform="rotate(-90 32 32) translate(4.02, 9.79) scale(0.0672, -0.0672)" fill="#FFFFFF">
    <path d="M311 12Q249 12 201-12Q153-36 121-77.500Q89-119 77.500-171Q66-223 77-278Q89-333 123-375Q157-417 204-441Q251-465 300-465Q325-465 348.500-458Q372-451 390-434L327-376Q312-413 289.500-425Q267-437 248-437Q222-437 201-419.500Q180-402 166-373.500Q152-345 144-310Q134-248 147-197Q160-146 189.500-109.500Q219-73 259.500-53Q300-33 345-33Q406-33 455-64.500Q504-96 535-157.500Q566-219 569-309L588-303Q581-198 543-128Q505-58 445-23Q385 12 311 12M120-194L109-205Q142-234 185.500-267.500Q229-301 273.500-337.500Q318-374 355.500-411Q393-448 416-483.500Q439-519 439-551Q439-571 432.500-581.500Q426-592 417-598Q408-604 401-611.500Q394-619 394-635Q394-652 404.500-662.500Q415-673 432-673Q457-673 471-652Q485-631 485-597Q485-553 461-509.500Q437-466 398-424.500Q359-383 311-343.500Q263-304 213-266.500Q163-229 120-194M391-224Q380-224 371-231Q362-238 362-258Q362-285 379.500-310Q397-335 425.500-351Q454-367 483-367Q510-367 538.500-355.500Q567-344 595.500-328.500Q624-313 650.500-301.500Q677-290 699-290Q712-290 720-295.500Q728-301 728-309Q728-318 722-325.500Q716-333 709.500-341Q703-349 703-361Q703-373 710.500-379.500Q718-386 732-386Q744-386 752.500-379.500Q761-373 761-352Q761-327 746-301.500Q731-276 707-259.500Q683-243 654-243Q629-243 600.500-255.500Q572-268 542.500-284Q513-300 484.500-312.500Q456-325 431-325Q415-325 407-318.500Q399-312 399-304Q399-294 404-285.500Q409-277 414-268.500Q419-260 419-250Q419-241 413-232.500Q407-224 391-224"/>
  </g>
</svg>
